name D:\school\WTK\thesis\model\3dpredictsim\Results\Batchsim_tmt_linear_v2\Pog_s1_tmt_aCst_d02_k2000_ig24_pas.mot
datacolumns 128
datarows 4
range 0.00000000 0.03218931
endheader
time	pelvis_tilt	pelvis_list	pelvis_rotation	pelvis_tx	pelvis_ty	pelvis_tz	hip_flexion_l	hip_adduction_l	hip_rotation_l	hip_flexion_r	hip_adduction_r	hip_rotation_r	knee_angle_l	knee_angle_r	ankle_angle_l	ankle_angle_r	subtalar_angle_l	subtalar_angle_r	tmt_angle_l	tmt_angle_r	mtp_angle_l	mtp_angle_r	lumbar_extension	lumbar_bending	lumbar_rotation	arm_flex_l	arm_add_l	arm_rot_l	arm_flex_r	arm_add_r	arm_rot_r	elbow_flex_l	elbow_flex_r	pro_sup_l	pro_sup_r	glut_med1_l/activation	glut_med2_l/activation	glut_med3_l/activation	glut_min1_l/activation	glut_min2_l/activation	glut_min3_l/activation	semimem_l/activation	semiten_l/activation	bifemlh_l/activation	bifemsh_l/activation	sar_l/activation	add_long_l/activation	add_brev_l/activation	add_mag1_l/activation	add_mag2_l/activation	add_mag3_l/activation	tfl_l/activation	pect_l/activation	grac_l/activation	glut_max1_l/activation	glut_max2_l/activation	glut_max3_l/activation	iliacus_l/activation	psoas_l/activation	quad_fem_l/activation	gem_l/activation	peri_l/activation	rect_fem_l/activation	vas_med_l/activation	vas_int_l/activation	vas_lat_l/activation	med_gas_l/activation	lat_gas_l/activation	soleus_l/activation	tib_post_l/activation	flex_dig_l/activation	flex_hal_l/activation	tib_ant_l/activation	per_brev_l/activation	per_long_l/activation	per_tert_l/activation	ext_dig_l/activation	ext_hal_l/activation	ercspn_l/activation	intobl_l/activation	extobl_l/activation	glut_med1_r/activation	glut_med2_r/activation	glut_med3_r/activation	glut_min1_r/activation	glut_min2_r/activation	glut_min3_r/activation	semimem_r/activation	semiten_r/activation	bifemlh_r/activation	bifemsh_r/activation	sar_r/activation	add_long_r/activation	add_brev_r/activation	add_mag1_r/activation	add_mag2_r/activation	add_mag3_r/activation	tfl_r/activation	pect_r/activation	grac_r/activation	glut_max1_r/activation	glut_max2_r/activation	glut_max3_r/activation	iliacus_r/activation	psoas_r/activation	quad_fem_r/activation	gem_r/activation	peri_r/activation	rect_fem_r/activation	vas_med_r/activation	vas_int_r/activation	vas_lat_r/activation	med_gas_r/activation	lat_gas_r/activation	soleus_r/activation	tib_post_r/activation	flex_dig_r/activation	flex_hal_r/activation	tib_ant_r/activation	per_brev_r/activation	per_long_r/activation	per_tert_r/activation	ext_dig_r/activation	ext_hal_r/activation	ercspn_r/activation	intobl_r/activation	extobl_r/activation	
          0.00000000	         -2.92039343	          0.77705401	          4.91112803	          0.00000000	          0.87228598	         -0.00216380	        -18.12457971	          1.18787542	          5.85507847	         26.08854484	         -0.19322772	         -3.26539567	         -5.04147539	         -7.07240100	         -9.19398703	          5.57901887	          6.62283052	          3.48524768	          0.54825985	          0.01778709	         27.76985398	         -0.10989401	          0.53716256	         -3.07357448	         -1.64961054	          3.93833942	        -13.47285997	         12.76191252	         -8.54756433	        -13.45102377	         13.11001122	         25.35586891	         16.54078024	         86.51662706	         86.51662706	          0.26509268	          0.08813006	          0.07634253	          0.25370386	          0.15402837	          0.09036097	          0.05000120	          0.05000012	          0.05000010	          0.05000010	          0.09655521	          0.05769659	          0.05000012	          0.05000022	          0.05000081	          0.05000075	          0.22519216	          0.05000043	          0.05000024	          0.05000313	          0.05000208	          0.05000135	          0.36434650	          0.65889339	          0.05000018	          0.05000246	          0.05894159	          0.31515587	          0.05488134	          0.05863127	          0.05930418	          0.19703266	          0.28653237	          0.23478682	          0.23435298	          0.21316475	          0.29175334	          0.05000001	          0.08991320	          0.14734394	          0.05000011	          0.05000003	          0.05000008	          0.05000000	          0.05000001	          0.05000001	          0.06635490	          0.07531136	          0.05002309	          0.05000025	          0.05000044	          0.05001985	          0.06948187	          0.05894260	          0.12991808	          0.05000159	          0.05000030	          0.05000026	          0.05536501	          0.09202406	          0.13787349	          0.15143315	          0.05000103	          0.05000054	          0.05892495	          0.05894222	          0.11531523	          0.16736346	          0.05000003	          0.05000005	          0.06425594	          0.05894161	          0.05000184	          0.05000018	          0.05000059	          0.05000072	          0.05000043	          0.05000007	          0.05000017	          0.05826585	          0.05888996	          0.05894154	          0.05894150	          0.47535680	          0.31041328	          0.19842816	          0.22170273	          0.48022934	          0.26625483	          0.05116756	          0.14170252	          0.14219883	
          0.01072977	         -2.90452063	          0.83966202	          5.07170930	          0.01674547	          0.87087837	         -0.00202218	        -17.98734660	          1.05167645	          5.62624043	         25.65657551	         -0.06193727	         -3.03744688	         -7.07845229	         -6.94520023	         -9.89366079	          5.08269969	          7.70679947	          3.01883218	          0.50757353	          0.01800379	         28.61874344	         -0.08808174	          0.74703708	         -2.90889871	         -1.70958034	          3.75120396	        -13.50212019	         13.09122855	         -9.72101933	        -13.44975501	         12.93237978	         26.17230693	         16.55613722	         86.51662706	         86.51662706	          0.22487794	          0.07476066	          0.06476135	          0.21521682	          0.13066215	          0.07665316	          0.05000062	          0.05000006	          0.05000005	          0.05000011	          0.08190786	          0.13963507	          0.13912787	          0.05001364	          0.05000148	          0.05000018	          0.19103035	          0.12005769	          0.05894063	          0.05000081	          0.05000044	          0.05000046	          0.30907484	          0.59984877	          0.06948180	          0.05000056	          0.05000026	          0.26734645	          0.12292202	          0.15700013	          0.09096233	          0.16714264	          0.24306517	          0.21531408	          0.19880202	          0.18082787	          0.24749431	          0.05000000	          0.07627333	          0.14180252	          0.05000005	          0.05000001	          0.05000006	          0.05000007	          0.05026343	          0.05000038	          0.10844014	          0.06388673	          0.28667259	          0.05894157	          0.05894153	          0.05000208	          0.05894151	          0.05000101	          0.11852118	          0.05000012	          0.05000081	          0.09211097	          0.11947794	          0.18126173	          0.20147404	          0.18398315	          0.05000009	          0.06951319	          0.05000184	          0.05000070	          0.09782190	          0.21864475	          0.05894146	          0.05000069	          0.05450829	          0.05000031	          0.12409707	          0.06330029	          0.23049274	          0.23801973	          0.19588648	          0.05000000	          0.05000000	          0.05000000	          0.05000000	          0.05000009	          0.05000006	          0.62567832	          0.32777471	          0.16832698	          0.54626634	          0.57056209	          0.37612046	          0.05000003	          0.12020612	          0.12062715	
          0.02145954	         -2.88144269	          0.88613603	          5.20695741	          0.03377525	          0.86938337	         -0.00187996	        -17.73897665	          0.90612163	          5.39177601	         25.14168877	          0.06275413	         -2.77137707	         -9.32974309	         -7.45467580	        -10.60086617	          4.37819232	          8.78498227	          2.55086543	          0.44779404	          0.01339718	         29.08885213	         -0.05028158	          0.97814967	         -2.71213795	         -1.76173853	          3.49173008	        -13.53862947	         13.38489803	        -10.90887527	        -13.45593166	         12.79209361	         26.98615045	         16.58120582	         86.51662706	         86.51662706	          0.19076379	          0.06341942	          0.05894143	          0.18256831	          0.11084061	          0.06502483	          0.05000086	          0.05000009	          0.05000015	          0.05000002	          0.06948244	          0.18224759	          0.28931164	          0.10496569	          0.05894185	          0.10751241	          0.16205091	          0.10184498	          0.05000027	          0.05002795	          0.05890500	          0.05894110	          0.26218792	          0.52235946	          0.05894146	          0.05894141	          0.05000053	          0.22678976	          0.13417649	          0.13417712	          0.13417629	          0.14178695	          0.20619198	          0.18265074	          0.16864361	          0.15339621	          0.20994926	          0.05000000	          0.06470265	          0.14840346	          0.05000003	          0.05000003	          0.05000006	          0.05369302	          0.06434944	          0.06159957	          0.16920299	          0.06458999	          0.24318509	          0.05000011	          0.05000011	          0.05000024	          0.05000005	          0.05000005	          0.10054143	          0.05000002	          0.05000010	          0.07813769	          0.10135307	          0.21227589	          0.23755541	          0.18357207	          0.05000104	          0.05896821	          0.05000034	          0.13587335	          0.15219820	          0.20574738	          0.05000004	          0.05000008	          0.18173779	          0.05881208	          0.10527148	          0.06892084	          0.21649771	          0.24136393	          0.16892892	          0.05189824	          0.05894158	          0.05000017	          0.05849519	          0.05894319	          0.05894190	          0.53076237	          0.35037230	          0.18307053	          0.46339728	          0.48400735	          0.31906267	          0.05000000	          0.10197075	          0.10232790	
          0.03218931	         -2.85342931	          0.91620441	          5.31578973	          0.05090907	          0.86778051	         -0.00174700	        -17.38336543	          0.75670567	          5.15307174	         24.52926991	          0.16398191	         -2.47958729	        -11.76805208	         -8.34913127	        -11.24386701	          3.82473062	          9.82261509	          2.04499982	          0.36637633	         -0.00519791	         28.97860200	         -0.19003878	          1.21329295	         -2.48592431	         -1.80350328	          3.18775973	        -13.57968962	         13.64122586	        -12.07139005	        -13.47395010	         12.73174941	         27.79580869	         16.58582043	         86.51662706	         86.51662706	          0.18878794	          0.05379865	          0.05000001	          0.15488756	          0.09402602	          0.05516053	          0.06786995	          0.05000014	          0.05000011	          0.05000013	          0.05894223	          0.19040732	          0.28916466	          0.08904244	          0.05000178	          0.09120285	          0.13746769	          0.08639556	          0.05000047	          0.05000034	          0.05000023	          0.05000029	          0.22241380	          0.48027567	          0.05000004	          0.05000011	          0.05000003	          0.19238556	          0.11382182	          0.11382234	          0.11382164	          0.12027775	          0.17491248	          0.15494247	          0.14306025	          0.13012594	          0.17809983	          0.05000173	          0.11438707	          0.12589062	          0.06712756	          0.15382736	          0.05001429	          0.06976732	          0.05458758	          0.05225496	          0.27854999	          0.26004040	          0.39399016	          0.26455534	          0.19974069	          0.23043003	          0.06948151	          0.08629160	          0.09064882	          0.06948212	          0.05894138	          0.06628416	          0.08597774	          0.18007350	          0.20151816	          0.19211913	          0.05000014	          0.05002334	          0.05113488	          0.20164483	          0.19676912	          0.21155966	          0.05000068	          0.05000022	          0.15416803	          0.05007225	          0.20407366	          0.05846550	          0.18365484	          0.20474883	          0.14330227	          0.05000007	          0.05000016	          0.05000002	          0.05000000	          0.05000152	          0.05000043	          0.58054243	          0.29722055	          0.15529858	          0.66566558	          0.58821476	          0.35296903	          0.05000001	          0.08650170	          0.08680467	
